ffmpeg version 2.8.15-0ubuntu0.16.04.1 Copyright (c) 2000-2018 the FFmpeg developers
  built with gcc 5.4.0 (Ubuntu 5.4.0-6ubuntu1~16.04.10) 20160609
  configuration: --prefix=/usr --extra-version=0ubuntu0.16.04.1 --build-suffix=-ffmpeg --toolchain=hardened --libdir=/usr/lib/x86_64-linux-gnu --incdir=/usr/include/x86_64-linux-gnu --cc=cc --cxx=g++ --enable-gpl --enable-shared --disable-stripping --disable-decoder=libopenjpeg --disable-decoder=libschroedinger --enable-avresample --enable-avisynth --enable-gnutls --enable-ladspa --enable-libass --enable-libbluray --enable-libbs2b --enable-libcaca --enable-libcdio --enable-libflite --enable-libfontconfig --enable-libfreetype --enable-libfribidi --enable-libgme --enable-libgsm --enable-libmodplug --enable-libmp3lame --enable-libopenjpeg --enable-libopus --enable-libpulse --enable-librtmp --enable-libschroedinger --enable-libshine --enable-libsnappy --enable-libsoxr --enable-libspeex --enable-libssh --enable-libtheora --enable-libtwolame --enable-libvorbis --enable-libvpx --enable-libwavpack --enable-libwebp --enable-libx265 --enable-libxvid --enable-libzvbi --enable-openal --enable-opengl --enable-x11grab --enable-libdc1394 --enable-libiec61883 --enable-libzmq --enable-frei0r --enable-libx264 --enable-libopencv
  libavutil      54. 31.100 / 54. 31.100
  libavcodec     56. 60.100 / 56. 60.100
  libavformat    56. 40.101 / 56. 40.101
  libavdevice    56.  4.100 / 56.  4.100
  libavfilter     5. 40.101 /  5. 40.101
  libavresample   2.  1.  0 /  2.  1.  0
  libswscale      3.  1.101 /  3.  1.101
  libswresample   1.  2.101 /  1.  2.101
  libpostproc    53.  3.100 / 53.  3.100
Input #0, image2pipe, from 'pipe:':
  Duration: N/A, bitrate: N/A
    Stream #0:0: Video: ppm, rgb24, 512x512, 12 fps, 12 tbr, 12 tbn, 12 tbc
[libx264 @ 0xfd3c00] using cpu capabilities: MMX2 SSE2Fast SSSE3 SSE4.2 AVX
[libx264 @ 0xfd3c00] profile High, level 2.2
[libx264 @ 0xfd3c00] 264 - core 148 r2643 5c65704 - H.264/MPEG-4 AVC codec - Copyleft 2003-2015 - http://www.videolan.org/x264.html - options: cabac=1 ref=3 deblock=1:0:0 analyse=0x3:0x113 me=hex subme=7 psy=1 psy_rd=1.00:0.00 mixed_ref=1 me_range=16 chroma_me=1 trellis=1 8x8dct=1 cqm=0 deadzone=21,11 fast_pskip=1 chroma_qp_offset=-2 threads=12 lookahead_threads=2 sliced_threads=0 nr=0 decimate=1 interlaced=0 bluray_compat=0 constrained_intra=0 bframes=3 b_pyramid=2 b_adapt=1 b_bias=0 direct=1 weightb=1 open_gop=0 weightp=2 keyint=250 keyint_min=12 scenecut=40 intra_refresh=0 rc_lookahead=40 rc=abr mbtree=1 bitrate=400 ratetol=1.0 qcomp=0.60 qpmin=0 qpmax=69 qpstep=4 ip_ratio=1.40 aq=1:1.00
Output #0, mp4, to './mission_records/84948388-f802-4dac-878e-40b8b92c2687/video.mp4':
  Metadata:
    encoder         : Lavf56.40.101
    Stream #0:0: Video: h264 (libx264) ([33][0][0][0] / 0x0021), yuv420p, 512x512, q=-1--1, 400 kb/s, 12 fps, 12288 tbn, 12 tbc
    Metadata:
      encoder         : Lavc56.60.100 libx264
Stream mapping:
  Stream #0:0 -> #0:0 (ppm (native) -> h264 (libx264))
frame=   14 fps=0.0 q=0.0 size=       0kB time=00:00:00.00 bitrate=N/A    frame=   19 fps= 17 q=0.0 size=       0kB time=00:00:00.00 bitrate=N/A    frame=   25 fps= 15 q=0.0 size=       0kB time=00:00:00.00 bitrate=N/A    frame=   31 fps= 14 q=0.0 size=       0kB time=00:00:00.00 bitrate=N/A    frame=   37 fps= 13 q=0.0 size=       0kB time=00:00:00.00 bitrate=N/A    frame=   43 fps= 13 q=0.0 size=       0kB time=00:00:00.00 bitrate=N/A    frame=   49 fps= 13 q=0.0 size=       0kB time=00:00:00.00 bitrate=N/A    frame=   55 fps= 12 q=0.0 size=       0kB time=00:00:00.00 bitrate=N/A    frame=   61 fps= 12 q=29.0 size=      55kB time=00:00:00.25 bitrate=1806.1kbits/s    frame=   67 fps= 12 q=32.0 size=      56kB time=00:00:00.75 bitrate= 608.5kbits/s    frame=   73 fps= 12 q=31.0 size=      56kB time=00:00:01.25 bitrate= 366.0kbits/s    frame=   79 fps= 12 q=21.0 size=      56kB time=00:00:01.75 bitrate= 262.1kbits/s    frame=   85 fps= 12 q=20.0 size=      56kB time=00:00:02.25 bitrate= 204.6kbits/s    frame=   91 fps= 12 q=17.0 size=      76kB time=00:00:02.75 bitrate= 225.7kbits/s    frame=   97 fps= 12 q=17.0 size=      93kB time=00:00:03.25 bitrate= 235.1kbits/s    frame=  103 fps= 12 q=15.0 size=     103kB time=00:00:03.75 bitrate= 224.0kbits/s    frame=  108 fps= 11 q=13.0 size=     103kB time=00:00:04.16 bitrate= 202.2kbits/s    frame=  114 fps= 11 q=12.0 size=     149kB time=00:00:04.66 bitrate= 261.4kbits/s    frame=  120 fps= 11 q=29.0 size=     548kB time=00:00:05.16 bitrate= 869.2kbits/s    frame=  126 fps= 11 q=32.0 size=     899kB time=00:00:05.66 bitrate=1299.0kbits/s    frame=  132 fps= 11 q=32.0 size=     959kB time=00:00:06.16 bitrate=1274.0kbits/s    frame=  138 fps= 11 q=32.0 size=     978kB time=00:00:06.66 bitrate=1201.2kbits/s    frame=  144 fps= 11 q=24.0 size=     995kB time=00:00:07.16 bitrate=1137.9kbits/s    frame=  150 fps= 11 q=33.0 size=    1045kB time=00:00:07.66 bitrate=1116.3kbits/s    frame=  156 fps= 11 q=33.0 size=    1084kB time=00:00:08.16 bitrate=1087.4kbits/s    frame=  162 fps= 11 q=34.0 size=    1103kB time=00:00:08.66 bitrate=1042.2kbits/s    av_interleaved_write_frame(): Immediate exit requested
frame=  166 fps= 11 q=32.0 Lsize=    1327kB time=00:00:12.00 bitrate= 905.8kbits/s    
video:1329kB audio:0kB subtitle:0kB other streams:0kB global headers:0kB muxing overhead: unknown
[libx264 @ 0xfd3c00] frame I:12    Avg QP:22.45  size: 21521
[libx264 @ 0xfd3c00] frame P:104   Avg QP:27.71  size: 10206
[libx264 @ 0xfd3c00] frame B:50    Avg QP:23.32  size:  2427
[libx264 @ 0xfd3c00] consecutive B-frames: 57.8%  6.0%  0.0% 36.1%
[libx264 @ 0xfd3c00] mb I  I16..4: 11.7% 35.7% 52.7%
[libx264 @ 0xfd3c00] mb P  I16..4:  6.4% 24.3% 10.8%  P16..4: 21.9%  9.4%  7.3%  0.0%  0.0%    skip:19.8%
[libx264 @ 0xfd3c00] mb B  I16..4:  0.1%  0.1%  0.5%  B16..8:  5.2%  1.6%  2.5%  direct: 0.4%  skip:89.7%  L0:40.4% L1:55.2% BI: 4.4%
[libx264 @ 0xfd3c00] final ratefactor: 28.85
[libx264 @ 0xfd3c00] 8x8 transform intra:53.3% inter:47.5%
[libx264 @ 0xfd3c00] coded y,uvDC,uvAC intra: 40.3% 44.2% 25.1% inter: 14.7% 10.9% 5.5%
[libx264 @ 0xfd3c00] i16 v,h,dc,p: 52% 29% 13%  6%
[libx264 @ 0xfd3c00] i8 v,h,dc,ddl,ddr,vr,hd,vl,hu: 36% 13% 28%  4%  3%  4%  5%  3%  4%
[libx264 @ 0xfd3c00] i4 v,h,dc,ddl,ddr,vr,hd,vl,hu: 35% 23% 16%  4%  3%  4%  5%  4%  5%
[libx264 @ 0xfd3c00] i8c dc,h,v,p: 70% 12% 15%  2%
[libx264 @ 0xfd3c00] Weighted P-Frames: Y:2.9% UV:2.9%
[libx264 @ 0xfd3c00] ref P L0: 74.7%  9.7% 11.0%  4.7%
[libx264 @ 0xfd3c00] ref B L0: 94.4%  5.6%
[libx264 @ 0xfd3c00] ref B L1: 97.1%  2.9%
[libx264 @ 0xfd3c00] kb/s:833.36
Exiting normally, received signal 2.
